ISO-10303-21;
HEADER;
/* Generated by software containing ST-Developer
 * from STEP Tools, Inc. (www.steptools.com) 
 */
/* OPTION: using custom renumber hook */

FILE_DESCRIPTION(
/* description */ ('STEP AP242 Edition 2',
'CAx-IF Rec.Pracs.---Representation and Presentation of Product Manufa
cturing Information (PMI)---4.0---2014-10-13',
'CAx-IF Rec.Pracs.---3D Tessellated Geometry---0.4---2014-09-14','2;1',
'CAx-IF Rec.Pracs.---User Defined Attributes---1.5---2016-08-15'),
/* implementation_level */ '2;1');

FILE_NAME(
/* name */ 'DoubleD MIDI Stick - Lid',
/* time_stamp */ '2026-06-17T21:13:55Z',
/* author */ (''),
/* organization */ (''),
/* preprocessor_version */ 'ST-DEVELOPER v20',
/* originating_system */ 'ONSHAPE BY PTC INC, 1.216',
/* authorisation */ '  ');

FILE_SCHEMA (('AP242_MANAGED_MODEL_BASED_3D_ENGINEERING_MIM_LF { 1 0 10303 442 3 1 4 }'));
ENDSEC;

DATA;
#10=SHAPE_REPRESENTATION_RELATIONSHIP('','',#294,#11);
#11=ADVANCED_BREP_SHAPE_REPRESENTATION('',(#292),#493);
#12=CONICAL_SURFACE('',#329,0.0016,0.576375220591184);
#13=CONICAL_SURFACE('',#330,0.0016,0.576375220591184);
#14=CONICAL_SURFACE('',#331,0.0016,0.994421106203712);
#15=CIRCLE('',#300,0.0016);
#16=CIRCLE('',#301,0.0016);
#17=CIRCLE('',#303,0.0016);
#18=CIRCLE('',#304,0.0016);
#19=CIRCLE('',#306,0.0016);
#20=CIRCLE('',#307,0.0016);
#21=CIRCLE('',#310,0.0028);
#22=CIRCLE('',#311,0.0028);
#23=CIRCLE('',#312,0.0028);
#24=CIRCLE('',#313,0.012);
#25=CIRCLE('',#315,0.0029);
#26=CIRCLE('',#316,0.0029);
#27=CIRCLE('',#317,0.0036);
#28=CIRCLE('',#318,0.012);
#29=CIRCLE('',#321,0.0028);
#30=CIRCLE('',#324,0.0028);
#31=CIRCLE('',#327,0.0028);
#32=CYLINDRICAL_SURFACE('',#299,0.0016);
#33=CYLINDRICAL_SURFACE('',#302,0.0016);
#34=CYLINDRICAL_SURFACE('',#305,0.0016);
#35=CYLINDRICAL_SURFACE('',#319,0.012);
#36=CYLINDRICAL_SURFACE('',#322,0.0028);
#37=CYLINDRICAL_SURFACE('',#325,0.0028);
#38=CYLINDRICAL_SURFACE('',#328,0.0028);
#39=ORIENTED_EDGE('',*,*,#97,.T.);
#40=ORIENTED_EDGE('',*,*,#98,.F.);
#41=ORIENTED_EDGE('',*,*,#99,.F.);
#42=ORIENTED_EDGE('',*,*,#100,.T.);
#43=ORIENTED_EDGE('',*,*,#101,.F.);
#44=ORIENTED_EDGE('',*,*,#100,.F.);
#45=ORIENTED_EDGE('',*,*,#102,.T.);
#46=ORIENTED_EDGE('',*,*,#103,.T.);
#47=ORIENTED_EDGE('',*,*,#104,.F.);
#48=ORIENTED_EDGE('',*,*,#103,.F.);
#49=ORIENTED_EDGE('',*,*,#105,.T.);
#50=ORIENTED_EDGE('',*,*,#106,.T.);
#51=ORIENTED_EDGE('',*,*,#107,.T.);
#52=ORIENTED_EDGE('',*,*,#108,.F.);
#53=ORIENTED_EDGE('',*,*,#109,.T.);
#54=ORIENTED_EDGE('',*,*,#110,.F.);
#55=ORIENTED_EDGE('',*,*,#111,.T.);
#56=ORIENTED_EDGE('',*,*,#112,.F.);
#57=ORIENTED_EDGE('',*,*,#113,.T.);
#58=ORIENTED_EDGE('',*,*,#106,.F.);
#59=ORIENTED_EDGE('',*,*,#114,.F.);
#60=ORIENTED_EDGE('',*,*,#98,.T.);
#61=ORIENTED_EDGE('',*,*,#115,.T.);
#62=ORIENTED_EDGE('',*,*,#116,.T.);
#63=ORIENTED_EDGE('',*,*,#117,.T.);
#64=ORIENTED_EDGE('',*,*,#118,.T.);
#65=ORIENTED_EDGE('',*,*,#99,.T.);
#66=ORIENTED_EDGE('',*,*,#114,.T.);
#67=ORIENTED_EDGE('',*,*,#105,.F.);
#68=ORIENTED_EDGE('',*,*,#102,.F.);
#69=ORIENTED_EDGE('',*,*,#119,.T.);
#70=ORIENTED_EDGE('',*,*,#120,.T.);
#71=ORIENTED_EDGE('',*,*,#121,.T.);
#72=ORIENTED_EDGE('',*,*,#122,.F.);
#73=ORIENTED_EDGE('',*,*,#97,.F.);
#74=ORIENTED_EDGE('',*,*,#101,.T.);
#75=ORIENTED_EDGE('',*,*,#104,.T.);
#76=ORIENTED_EDGE('',*,*,#113,.F.);
#77=ORIENTED_EDGE('',*,*,#122,.T.);
#78=ORIENTED_EDGE('',*,*,#118,.F.);
#79=ORIENTED_EDGE('',*,*,#123,.F.);
#80=ORIENTED_EDGE('',*,*,#108,.T.);
#81=ORIENTED_EDGE('',*,*,#117,.F.);
#82=ORIENTED_EDGE('',*,*,#123,.T.);
#83=ORIENTED_EDGE('',*,*,#124,.F.);
#84=ORIENTED_EDGE('',*,*,#110,.T.);
#85=ORIENTED_EDGE('',*,*,#116,.F.);
#86=ORIENTED_EDGE('',*,*,#124,.T.);
#87=ORIENTED_EDGE('',*,*,#125,.F.);
#88=ORIENTED_EDGE('',*,*,#112,.T.);
#89=ORIENTED_EDGE('',*,*,#115,.F.);
#90=ORIENTED_EDGE('',*,*,#125,.T.);
#91=ORIENTED_EDGE('',*,*,#119,.F.);
#92=ORIENTED_EDGE('',*,*,#111,.F.);
#93=ORIENTED_EDGE('',*,*,#120,.F.);
#94=ORIENTED_EDGE('',*,*,#109,.F.);
#95=ORIENTED_EDGE('',*,*,#121,.F.);
#96=ORIENTED_EDGE('',*,*,#107,.F.);
#97=EDGE_CURVE('',#126,#127,#151,.T.);
#98=EDGE_CURVE('',#128,#127,#152,.T.);
#99=EDGE_CURVE('',#129,#128,#153,.T.);
#100=EDGE_CURVE('',#129,#126,#154,.T.);
#101=EDGE_CURVE('',#126,#130,#155,.T.);
#102=EDGE_CURVE('',#129,#131,#156,.T.);
#103=EDGE_CURVE('',#131,#130,#157,.T.);
#104=EDGE_CURVE('',#130,#132,#158,.T.);
#105=EDGE_CURVE('',#131,#133,#159,.T.);
#106=EDGE_CURVE('',#133,#132,#160,.T.);
#107=EDGE_CURVE('',#134,#134,#15,.T.);
#108=EDGE_CURVE('',#135,#135,#16,.F.);
#109=EDGE_CURVE('',#136,#136,#17,.T.);
#110=EDGE_CURVE('',#137,#137,#18,.F.);
#111=EDGE_CURVE('',#138,#138,#19,.T.);
#112=EDGE_CURVE('',#139,#139,#20,.F.);
#113=EDGE_CURVE('',#127,#132,#161,.T.);
#114=EDGE_CURVE('',#128,#133,#162,.T.);
#115=EDGE_CURVE('',#140,#140,#21,.T.);
#116=EDGE_CURVE('',#141,#141,#22,.T.);
#117=EDGE_CURVE('',#142,#142,#23,.T.);
#118=EDGE_CURVE('',#143,#143,#24,.T.);
#119=EDGE_CURVE('',#144,#144,#25,.F.);
#120=EDGE_CURVE('',#145,#145,#26,.F.);
#121=EDGE_CURVE('',#146,#146,#27,.F.);
#122=EDGE_CURVE('',#147,#147,#28,.T.);
#123=EDGE_CURVE('',#148,#148,#29,.F.);
#124=EDGE_CURVE('',#149,#149,#30,.F.);
#125=EDGE_CURVE('',#150,#150,#31,.F.);
#126=VERTEX_POINT('',#421);
#127=VERTEX_POINT('',#422);
#128=VERTEX_POINT('',#424);
#129=VERTEX_POINT('',#426);
#130=VERTEX_POINT('',#430);
#131=VERTEX_POINT('',#432);
#132=VERTEX_POINT('',#436);
#133=VERTEX_POINT('',#438);
#134=VERTEX_POINT('',#442);
#135=VERTEX_POINT('',#444);
#136=VERTEX_POINT('',#447);
#137=VERTEX_POINT('',#449);
#138=VERTEX_POINT('',#452);
#139=VERTEX_POINT('',#454);
#140=VERTEX_POINT('',#460);
#141=VERTEX_POINT('',#462);
#142=VERTEX_POINT('',#464);
#143=VERTEX_POINT('',#466);
#144=VERTEX_POINT('',#469);
#145=VERTEX_POINT('',#471);
#146=VERTEX_POINT('',#473);
#147=VERTEX_POINT('',#475);
#148=VERTEX_POINT('',#479);
#149=VERTEX_POINT('',#483);
#150=VERTEX_POINT('',#487);
#151=LINE('',#420,#163);
#152=LINE('',#423,#164);
#153=LINE('',#425,#165);
#154=LINE('',#427,#166);
#155=LINE('',#429,#167);
#156=LINE('',#431,#168);
#157=LINE('',#433,#169);
#158=LINE('',#435,#170);
#159=LINE('',#437,#171);
#160=LINE('',#439,#172);
#161=LINE('',#456,#173);
#162=LINE('',#457,#174);
#163=VECTOR('',#336,1.);
#164=VECTOR('',#337,1.);
#165=VECTOR('',#338,1.);
#166=VECTOR('',#339,1.);
#167=VECTOR('',#342,1.);
#168=VECTOR('',#343,1.);
#169=VECTOR('',#344,1.);
#170=VECTOR('',#347,1.);
#171=VECTOR('',#348,1.);
#172=VECTOR('',#349,1.);
#173=VECTOR('',#370,1.);
#174=VECTOR('',#371,1.);
#175=EDGE_LOOP('',(#39,#40,#41,#42));
#176=EDGE_LOOP('',(#43,#44,#45,#46));
#177=EDGE_LOOP('',(#47,#48,#49,#50));
#178=EDGE_LOOP('',(#51));
#179=EDGE_LOOP('',(#52));
#180=EDGE_LOOP('',(#53));
#181=EDGE_LOOP('',(#54));
#182=EDGE_LOOP('',(#55));
#183=EDGE_LOOP('',(#56));
#184=EDGE_LOOP('',(#57,#58,#59,#60));
#185=EDGE_LOOP('',(#61));
#186=EDGE_LOOP('',(#62));
#187=EDGE_LOOP('',(#63));
#188=EDGE_LOOP('',(#64));
#189=EDGE_LOOP('',(#65,#66,#67,#68));
#190=EDGE_LOOP('',(#69));
#191=EDGE_LOOP('',(#70));
#192=EDGE_LOOP('',(#71));
#193=EDGE_LOOP('',(#72));
#194=EDGE_LOOP('',(#73,#74,#75,#76));
#195=EDGE_LOOP('',(#77));
#196=EDGE_LOOP('',(#78));
#197=EDGE_LOOP('',(#79));
#198=EDGE_LOOP('',(#80));
#199=EDGE_LOOP('',(#81));
#200=EDGE_LOOP('',(#82));
#201=EDGE_LOOP('',(#83));
#202=EDGE_LOOP('',(#84));
#203=EDGE_LOOP('',(#85));
#204=EDGE_LOOP('',(#86));
#205=EDGE_LOOP('',(#87));
#206=EDGE_LOOP('',(#88));
#207=EDGE_LOOP('',(#89));
#208=EDGE_LOOP('',(#90));
#209=EDGE_LOOP('',(#91));
#210=EDGE_LOOP('',(#92));
#211=EDGE_LOOP('',(#93));
#212=EDGE_LOOP('',(#94));
#213=EDGE_LOOP('',(#95));
#214=EDGE_LOOP('',(#96));
#215=FACE_BOUND('',#175,.T.);
#216=FACE_BOUND('',#176,.T.);
#217=FACE_BOUND('',#177,.T.);
#218=FACE_BOUND('',#178,.T.);
#219=FACE_BOUND('',#179,.T.);
#220=FACE_BOUND('',#180,.T.);
#221=FACE_BOUND('',#181,.T.);
#222=FACE_BOUND('',#182,.T.);
#223=FACE_BOUND('',#183,.T.);
#224=FACE_BOUND('',#184,.T.);
#225=FACE_BOUND('',#185,.T.);
#226=FACE_BOUND('',#186,.T.);
#227=FACE_BOUND('',#187,.T.);
#228=FACE_BOUND('',#188,.T.);
#229=FACE_BOUND('',#189,.T.);
#230=FACE_BOUND('',#190,.T.);
#231=FACE_BOUND('',#191,.T.);
#232=FACE_BOUND('',#192,.T.);
#233=FACE_BOUND('',#193,.T.);
#234=FACE_BOUND('',#194,.T.);
#235=FACE_BOUND('',#195,.T.);
#236=FACE_BOUND('',#196,.T.);
#237=FACE_BOUND('',#197,.T.);
#238=FACE_BOUND('',#198,.T.);
#239=FACE_BOUND('',#199,.T.);
#240=FACE_BOUND('',#200,.T.);
#241=FACE_BOUND('',#201,.T.);
#242=FACE_BOUND('',#202,.T.);
#243=FACE_BOUND('',#203,.T.);
#244=FACE_BOUND('',#204,.T.);
#245=FACE_BOUND('',#205,.T.);
#246=FACE_BOUND('',#206,.T.);
#247=FACE_BOUND('',#207,.T.);
#248=FACE_BOUND('',#208,.T.);
#249=FACE_BOUND('',#209,.T.);
#250=FACE_BOUND('',#210,.T.);
#251=FACE_BOUND('',#211,.T.);
#252=FACE_BOUND('',#212,.T.);
#253=FACE_BOUND('',#213,.T.);
#254=FACE_BOUND('',#214,.T.);
#255=PLANE('',#296);
#256=PLANE('',#297);
#257=PLANE('',#298);
#258=PLANE('',#308);
#259=PLANE('',#309);
#260=PLANE('',#314);
#261=PLANE('',#320);
#262=PLANE('',#323);
#263=PLANE('',#326);
#264=ADVANCED_FACE('',(#215),#255,.F.);
#265=ADVANCED_FACE('',(#216),#256,.T.);
#266=ADVANCED_FACE('',(#217),#257,.T.);
#267=ADVANCED_FACE('',(#218,#219),#32,.F.);
#268=ADVANCED_FACE('',(#220,#221),#33,.F.);
#269=ADVANCED_FACE('',(#222,#223),#34,.F.);
#270=ADVANCED_FACE('',(#224),#258,.F.);
#271=ADVANCED_FACE('',(#225,#226,#227,#228,#229),#259,.F.);
#272=ADVANCED_FACE('',(#230,#231,#232,#233,#234),#260,.T.);
#273=ADVANCED_FACE('',(#235,#236),#35,.F.);
#274=ADVANCED_FACE('',(#237,#238),#261,.T.);
#275=ADVANCED_FACE('',(#239,#240),#36,.T.);
#276=ADVANCED_FACE('',(#241,#242),#262,.T.);
#277=ADVANCED_FACE('',(#243,#244),#37,.T.);
#278=ADVANCED_FACE('',(#245,#246),#263,.T.);
#279=ADVANCED_FACE('',(#247,#248),#38,.T.);
#280=ADVANCED_FACE('',(#249,#250),#12,.F.);
#281=ADVANCED_FACE('',(#251,#252),#13,.F.);
#282=ADVANCED_FACE('',(#253,#254),#14,.F.);
#283=CLOSED_SHELL('',(#264,#265,#266,#267,#268,#269,#270,#271,#272,#273,
#274,#275,#276,#277,#278,#279,#280,#281,#282));
#284=STYLED_ITEM('',(#285),#292);
#285=PRESENTATION_STYLE_ASSIGNMENT((#286));
#286=SURFACE_STYLE_USAGE(.BOTH.,#287);
#287=SURFACE_SIDE_STYLE('',(#288));
#288=SURFACE_STYLE_FILL_AREA(#289);
#289=FILL_AREA_STYLE('',(#290));
#290=FILL_AREA_STYLE_COLOUR('',#291);
#291=COLOUR_RGB('',0.647058823529412,0.647058823529412,0.647058823529412);
#292=MANIFOLD_SOLID_BREP('Lid',#283);
#293=SHAPE_DEFINITION_REPRESENTATION(#498,#294);
#294=SHAPE_REPRESENTATION('Lid',(#295),#493);
#295=AXIS2_PLACEMENT_3D('',#418,#332,#333);
#296=AXIS2_PLACEMENT_3D('',#419,#334,#335);
#297=AXIS2_PLACEMENT_3D('',#428,#340,#341);
#298=AXIS2_PLACEMENT_3D('',#434,#345,#346);
#299=AXIS2_PLACEMENT_3D('',#440,#350,#351);
#300=AXIS2_PLACEMENT_3D('',#441,#352,#353);
#301=AXIS2_PLACEMENT_3D('',#443,#354,#355);
#302=AXIS2_PLACEMENT_3D('',#445,#356,#357);
#303=AXIS2_PLACEMENT_3D('',#446,#358,#359);
#304=AXIS2_PLACEMENT_3D('',#448,#360,#361);
#305=AXIS2_PLACEMENT_3D('',#450,#362,#363);
#306=AXIS2_PLACEMENT_3D('',#451,#364,#365);
#307=AXIS2_PLACEMENT_3D('',#453,#366,#367);
#308=AXIS2_PLACEMENT_3D('',#455,#368,#369);
#309=AXIS2_PLACEMENT_3D('',#458,#372,#373);
#310=AXIS2_PLACEMENT_3D('',#459,#374,#375);
#311=AXIS2_PLACEMENT_3D('',#461,#376,#377);
#312=AXIS2_PLACEMENT_3D('',#463,#378,#379);
#313=AXIS2_PLACEMENT_3D('',#465,#380,#381);
#314=AXIS2_PLACEMENT_3D('',#467,#382,#383);
#315=AXIS2_PLACEMENT_3D('',#468,#384,#385);
#316=AXIS2_PLACEMENT_3D('',#470,#386,#387);
#317=AXIS2_PLACEMENT_3D('',#472,#388,#389);
#318=AXIS2_PLACEMENT_3D('',#474,#390,#391);
#319=AXIS2_PLACEMENT_3D('',#476,#392,#393);
#320=AXIS2_PLACEMENT_3D('',#477,#394,#395);
#321=AXIS2_PLACEMENT_3D('',#478,#396,#397);
#322=AXIS2_PLACEMENT_3D('',#480,#398,#399);
#323=AXIS2_PLACEMENT_3D('',#481,#400,#401);
#324=AXIS2_PLACEMENT_3D('',#482,#402,#403);
#325=AXIS2_PLACEMENT_3D('',#484,#404,#405);
#326=AXIS2_PLACEMENT_3D('',#485,#406,#407);
#327=AXIS2_PLACEMENT_3D('',#486,#408,#409);
#328=AXIS2_PLACEMENT_3D('',#488,#410,#411);
#329=AXIS2_PLACEMENT_3D('',#489,#412,#413);
#330=AXIS2_PLACEMENT_3D('',#490,#414,#415);
#331=AXIS2_PLACEMENT_3D('',#491,#416,#417);
#332=DIRECTION('',(0.,0.,1.));
#333=DIRECTION('',(1.,0.,0.));
#334=DIRECTION('',(2.52624233285388E-16,0.,1.));
#335=DIRECTION('',(1.,0.,-2.52624233285388E-16));
#336=DIRECTION('',(1.,0.,-2.52624233285388E-16));
#337=DIRECTION('',(0.,1.,0.));
#338=DIRECTION('',(1.,0.,-2.52624233285388E-16));
#339=DIRECTION('',(0.,1.,0.));
#340=DIRECTION('',(-1.,0.,6.65515352645028E-17));
#341=DIRECTION('',(6.65515352645028E-17,0.,1.));
#342=DIRECTION('',(6.65515352645028E-17,0.,1.));
#343=DIRECTION('',(6.65515352645028E-17,0.,1.));
#344=DIRECTION('',(0.,1.,0.));
#345=DIRECTION('',(2.24554874031457E-16,0.,1.));
#346=DIRECTION('',(1.,0.,-2.24554874031457E-16));
#347=DIRECTION('',(1.,0.,-2.24554874031457E-16));
#348=DIRECTION('',(1.,0.,-2.24554874031457E-16));
#349=DIRECTION('',(0.,1.,0.));
#350=DIRECTION('',(0.,1.,0.));
#351=DIRECTION('',(1.,0.,0.));
#352=DIRECTION('',(0.,1.,0.));
#353=DIRECTION('',(1.,0.,0.));
#354=DIRECTION('',(0.,-1.,0.));
#355=DIRECTION('',(-1.,0.,0.));
#356=DIRECTION('',(0.,1.,0.));
#357=DIRECTION('',(1.,0.,0.));
#358=DIRECTION('',(0.,1.,0.));
#359=DIRECTION('',(1.,0.,0.));
#360=DIRECTION('',(0.,-1.,0.));
#361=DIRECTION('',(-1.,0.,0.));
#362=DIRECTION('',(0.,1.,0.));
#363=DIRECTION('',(1.,0.,0.));
#364=DIRECTION('',(0.,1.,0.));
#365=DIRECTION('',(1.,0.,0.));
#366=DIRECTION('',(0.,-1.,0.));
#367=DIRECTION('',(-1.,0.,0.));
#368=DIRECTION('',(-1.,0.,0.));
#369=DIRECTION('',(0.,1.,0.));
#370=DIRECTION('',(0.,0.,1.));
#371=DIRECTION('',(0.,0.,1.));
#372=DIRECTION('',(0.,1.,0.));
#373=DIRECTION('',(1.,0.,0.));
#374=DIRECTION('',(0.,1.,0.));
#375=DIRECTION('',(1.,0.,0.));
#376=DIRECTION('',(0.,1.,0.));
#377=DIRECTION('',(1.,0.,0.));
#378=DIRECTION('',(0.,1.,0.));
#379=DIRECTION('',(1.,0.,0.));
#380=DIRECTION('',(0.,1.,0.));
#381=DIRECTION('',(1.,0.,0.));
#382=DIRECTION('',(0.,1.,0.));
#383=DIRECTION('',(1.,0.,0.));
#384=DIRECTION('',(0.,1.,0.));
#385=DIRECTION('',(1.,0.,0.));
#386=DIRECTION('',(0.,1.,0.));
#387=DIRECTION('',(1.,0.,0.));
#388=DIRECTION('',(0.,1.,0.));
#389=DIRECTION('',(1.,0.,0.));
#390=DIRECTION('',(0.,1.,0.));
#391=DIRECTION('',(1.,0.,0.));
#392=DIRECTION('',(1.16220613466576E-29,1.,1.097926250618E-15));
#393=DIRECTION('',(0.,-1.097926250618E-15,1.));
#394=DIRECTION('',(0.,-1.,0.));
#395=DIRECTION('',(-1.,0.,0.));
#396=DIRECTION('',(0.,-1.,0.));
#397=DIRECTION('',(-1.,0.,0.));
#398=DIRECTION('',(0.,1.,0.));
#399=DIRECTION('',(1.,0.,0.));
#400=DIRECTION('',(0.,-1.,0.));
#401=DIRECTION('',(-1.,0.,0.));
#402=DIRECTION('',(0.,-1.,0.));
#403=DIRECTION('',(-1.,0.,0.));
#404=DIRECTION('',(0.,1.,0.));
#405=DIRECTION('',(1.,0.,0.));
#406=DIRECTION('',(0.,-1.,0.));
#407=DIRECTION('',(-1.,0.,0.));
#408=DIRECTION('',(0.,-1.,0.));
#409=DIRECTION('',(-1.,0.,0.));
#410=DIRECTION('',(0.,1.,0.));
#411=DIRECTION('',(1.,0.,0.));
#412=DIRECTION('',(0.,1.,0.));
#413=DIRECTION('',(1.,0.,0.));
#414=DIRECTION('',(0.,1.,0.));
#415=DIRECTION('',(1.,0.,0.));
#416=DIRECTION('',(0.,1.,0.));
#417=DIRECTION('',(1.,0.,0.));
#418=CARTESIAN_POINT('',(0.,0.,0.));
#419=CARTESIAN_POINT('',(0.015240030480061,0.0101,-0.003131305562611));
#420=CARTESIAN_POINT('',(0.015240030480061,0.0131,-0.003131305562611));
#421=CARTESIAN_POINT('',(-0.000210299720598999,0.0131,-0.003131305562611));
#422=CARTESIAN_POINT('',(0.030690360680721,0.0131,-0.00313130556261101));
#423=CARTESIAN_POINT('',(0.030690360680721,0.0101,-0.00313130556261101));
#424=CARTESIAN_POINT('',(0.030690360680721,0.0101,-0.00313130556261101));
#425=CARTESIAN_POINT('',(0.015240030480061,0.0101,-0.003131305562611));
#426=CARTESIAN_POINT('',(-0.000210299720598999,0.0101,-0.003131305562611));
#427=CARTESIAN_POINT('',(-0.000210299720598999,0.0101,-0.003131305562611));
#428=CARTESIAN_POINT('',(-0.000210299720598999,0.0101,0.0119380238760445));
#429=CARTESIAN_POINT('',(-0.000210299720598999,0.0131,0.0119380238760445));
#430=CARTESIAN_POINT('',(-0.000210299720598997,0.0131,0.0270073533147));
#431=CARTESIAN_POINT('',(-0.000210299720598999,0.0101,0.0119380238760445));
#432=CARTESIAN_POINT('',(-0.000210299720598997,0.0101,0.0270073533147));
#433=CARTESIAN_POINT('',(-0.000210299720598997,0.0101,0.0270073533147));
#434=CARTESIAN_POINT('',(0.015240030480061,0.0101,0.0270073533147));
#435=CARTESIAN_POINT('',(0.015240030480061,0.0131,0.0270073533147));
#436=CARTESIAN_POINT('',(0.030690360680721,0.0131,0.0270073533147));
#437=CARTESIAN_POINT('',(0.015240030480061,0.0101,0.0270073533147));
#438=CARTESIAN_POINT('',(0.030690360680721,0.0101,0.0270073533147));
#439=CARTESIAN_POINT('',(0.030690360680721,0.0101,0.0270073533147));
#440=CARTESIAN_POINT('',(0.003727007874016,0.0101,0.000806002032004));
#441=CARTESIAN_POINT('',(0.003727007874016,0.0118,0.000806002032004));
#442=CARTESIAN_POINT('',(0.005327007874016,0.0118,0.000806002032004));
#443=CARTESIAN_POINT('',(0.003727007874016,0.001600050800102,0.000806002032004));
#444=CARTESIAN_POINT('',(0.002127007874016,0.001600050800102,0.000806002032004));
#445=CARTESIAN_POINT('',(0.026753053086106,0.0101,0.000806002032004));
#446=CARTESIAN_POINT('',(0.026753053086106,0.0111,0.000806002032004));
#447=CARTESIAN_POINT('',(0.028353053086106,0.0111,0.000806002032004));
#448=CARTESIAN_POINT('',(0.026753053086106,0.001600050800102,0.000806002032004));
#449=CARTESIAN_POINT('',(0.025153053086106,0.001600050800102,0.000806002032004));
#450=CARTESIAN_POINT('',(0.003727007874016,0.0101,0.02307004572009));
#451=CARTESIAN_POINT('',(0.003727007874016,0.0111,0.02307004572009));
#452=CARTESIAN_POINT('',(0.005327007874016,0.0111,0.02307004572009));
#453=CARTESIAN_POINT('',(0.003727007874016,0.001600050800102,0.02307004572009));
#454=CARTESIAN_POINT('',(0.002127007874016,0.001600050800102,0.02307004572009));
#455=CARTESIAN_POINT('',(0.030690360680721,0.0101,0.0119380238760445));
#456=CARTESIAN_POINT('',(0.030690360680721,0.0131,0.0119380238760445));
#457=CARTESIAN_POINT('',(0.030690360680721,0.0101,0.0119380238760445));
#458=CARTESIAN_POINT('',(0.015240030480061,0.0101,0.0119380238760445));
#459=CARTESIAN_POINT('',(0.003727007874016,0.0101,0.02307004572009));
#460=CARTESIAN_POINT('',(0.006527007874016,0.0101,0.02307004572009));
#461=CARTESIAN_POINT('',(0.026753053086106,0.0101,0.000806002032004));
#462=CARTESIAN_POINT('',(0.029553053086106,0.0101,0.000806002032004));
#463=CARTESIAN_POINT('',(0.003727007874016,0.0101,0.000806002032004));
#464=CARTESIAN_POINT('',(0.006527007874016,0.0101,0.000806002032004));
#465=CARTESIAN_POINT('',(0.015296566071527,0.0101,0.01366658920854));
#466=CARTESIAN_POINT('',(0.027296566071527,0.0101,0.01366658920854));
#467=CARTESIAN_POINT('',(0.015240030480061,0.0131,0.0119380238760445));
#468=CARTESIAN_POINT('',(0.003727007874016,0.0131,0.02307004572009));
#469=CARTESIAN_POINT('',(0.006627007874016,0.0131,0.02307004572009));
#470=CARTESIAN_POINT('',(0.026753053086106,0.0131,0.000806002032004));
#471=CARTESIAN_POINT('',(0.029653053086106,0.0131,0.000806002032004));
#472=CARTESIAN_POINT('',(0.003727007874016,0.0131,0.000806002032004));
#473=CARTESIAN_POINT('',(0.007327007874016,0.0131,0.000806002032004));
#474=CARTESIAN_POINT('',(0.015296566071527,0.0131,0.01366658920854));
#475=CARTESIAN_POINT('',(0.027296566071527,0.0131,0.01366658920854));
#476=CARTESIAN_POINT('',(0.015296566071527,-0.0392392148048267,0.01366658920854));
#477=CARTESIAN_POINT('',(0.015240030480061,0.001600050800102,0.01193802387604));
#478=CARTESIAN_POINT('',(0.003727007874016,0.001600050800102,0.000806002032004));
#479=CARTESIAN_POINT('',(0.000927007874016,0.001600050800102,0.000806002032004));
#480=CARTESIAN_POINT('',(0.003727007874016,-2.00000000000027E-6,0.000806002032004));
#481=CARTESIAN_POINT('',(0.015240030480061,0.001600050800102,0.01193802387604));
#482=CARTESIAN_POINT('',(0.026753053086106,0.001600050800102,0.000806002032004));
#483=CARTESIAN_POINT('',(0.023953053086106,0.001600050800102,0.000806002032004));
#484=CARTESIAN_POINT('',(0.026753053086106,-2.00000000000027E-6,0.000806002032004));
#485=CARTESIAN_POINT('',(0.015240030480061,0.001600050800102,0.01193802387604));
#486=CARTESIAN_POINT('',(0.003727007874016,0.001600050800102,0.02307004572009));
#487=CARTESIAN_POINT('',(0.000927007874016,0.001600050800102,0.02307004572009));
#488=CARTESIAN_POINT('',(0.003727007874016,-2.00000000000027E-6,0.02307004572009));
#489=CARTESIAN_POINT('',(0.003727007874016,0.0111,0.02307004572009));
#490=CARTESIAN_POINT('',(0.026753053086106,0.0111,0.000806002032004));
#491=CARTESIAN_POINT('',(0.003727007874016,0.0118,0.000806002032004));
#492=MECHANICAL_DESIGN_GEOMETRIC_PRESENTATION_REPRESENTATION('',(#284),
#493);
#493=(
GEOMETRIC_REPRESENTATION_CONTEXT(3)
GLOBAL_UNCERTAINTY_ASSIGNED_CONTEXT((#494))
GLOBAL_UNIT_ASSIGNED_CONTEXT((#497,#496,#495))
REPRESENTATION_CONTEXT('Lid','TOP_LEVEL_ASSEMBLY_PART')
);
#494=UNCERTAINTY_MEASURE_WITH_UNIT(LENGTH_MEASURE(1.E-8),#497,
'DISTANCE_ACCURACY_VALUE','Maximum Tolerance applied to model');
#495=(
NAMED_UNIT(*)
SI_UNIT($,.STERADIAN.)
SOLID_ANGLE_UNIT()
);
#496=(
NAMED_UNIT(*)
PLANE_ANGLE_UNIT()
SI_UNIT($,.RADIAN.)
);
#497=(
LENGTH_UNIT()
NAMED_UNIT(*)
SI_UNIT($,.METRE.)
);
#498=PRODUCT_DEFINITION_SHAPE('','',#499);
#499=PRODUCT_DEFINITION('','',#501,#500);
#500=PRODUCT_DEFINITION_CONTEXT('',#507,'design');
#501=PRODUCT_DEFINITION_FORMATION_WITH_SPECIFIED_SOURCE('','',#503,
 .NOT_KNOWN.);
#502=PRODUCT_RELATED_PRODUCT_CATEGORY('','',(#503));
#503=PRODUCT('Lid','Lid','Lid',(#505));
#504=PRODUCT_CATEGORY('','');
#505=PRODUCT_CONTEXT('',#507,'mechanical');
#506=APPLICATION_PROTOCOL_DEFINITION('international standard',
'ap242_managed_model_based_3d_engineering',2020,#507);
#507=APPLICATION_CONTEXT('managed model based 3d engineering');
ENDSEC;
END-ISO-10303-21;
